<svg width="31" height="30" viewBox="0 0 31 30" fill="none" xmlns="http://www.w3.org/2000/svg">
<path d="M0.0568848 30L2.1757 22.2962C0.868238 20.0412 0.181225 17.485 0.182481 14.8637C0.186249 6.66875 6.88683 0 15.1197 0C19.1149 0.00125 22.8652 1.55 25.6861 4.36C28.5058 7.17 30.0581 10.905 30.0569 14.8775C30.0531 23.0738 23.3525 29.7425 15.1197 29.7425C12.6203 29.7413 10.1574 29.1175 7.97575 27.9325L0.0568848 30V30ZM8.34249 25.2413C10.4475 26.485 12.457 27.23 15.1147 27.2312C21.9572 27.2312 27.5311 21.6887 27.5349 14.875C27.5374 8.0475 21.9898 2.5125 15.1247 2.51C8.27718 2.51 2.70697 8.0525 2.70446 14.865C2.7032 17.6463 3.52209 19.7287 4.89738 21.9075L3.64267 26.4675L8.34249 25.2413V25.2413ZM22.6442 18.4113C22.5512 18.2563 22.3026 18.1637 21.9283 17.9775C21.5553 17.7912 19.7203 16.8925 19.3774 16.7687C19.0358 16.645 18.7871 16.5825 18.5372 16.955C18.2885 17.3263 17.5726 18.1638 17.3553 18.4113C17.138 18.6588 16.9195 18.69 16.5465 18.5038C16.1734 18.3175 14.9702 17.9263 13.5447 16.66C12.4357 15.675 11.6859 14.4588 11.4686 14.0863C11.2513 13.715 11.446 13.5138 11.6319 13.3288C11.8002 13.1625 12.0049 12.895 12.192 12.6775C12.3817 12.4625 12.4432 12.3075 12.5688 12.0588C12.6932 11.8113 12.6316 11.5938 12.5374 11.4075C12.4432 11.2225 11.6972 9.39375 11.387 8.65C11.083 7.92625 10.7753 8.02375 10.5467 8.0125L9.83081 8C9.58213 8 9.17771 8.0925 8.83608 8.465C8.49446 8.8375 7.52988 9.735 7.52988 11.5638C7.52988 13.3925 8.86748 15.1587 9.05337 15.4062C9.24051 15.6537 11.6846 19.4063 15.4286 21.015C16.3191 21.3975 17.0149 21.6262 17.5563 21.7975C18.4505 22.08 19.2644 22.04 19.9074 21.945C20.6246 21.8387 22.1154 21.0462 22.4269 20.1787C22.7384 19.31 22.7384 18.5663 22.6442 18.4113V18.4113Z" fill="black"/>
</svg>
